<?xml version="1.0" encoding="UTF-8" standalone="no"?>
<!-- Created with Inkscape (http://www.inkscape.org/) -->

<svg
   xmlns:dc="http://purl.org/dc/elements/1.1/"
   xmlns:cc="http://creativecommons.org/ns#"
   xmlns:rdf="http://www.w3.org/1999/02/22-rdf-syntax-ns#"
   xmlns:svg="http://www.w3.org/2000/svg"
   xmlns="http://www.w3.org/2000/svg"
   xmlns:sodipodi="http://sodipodi.sourceforge.net/DTD/sodipodi-0.dtd"
   xmlns:inkscape="http://www.inkscape.org/namespaces/inkscape"
   width="349.81595"
   height="107.37142"
   viewBox="0 0 92.555468 28.408689"
   version="1.1"
   id="svg8"
   inkscape:version="0.92.3 (2405546, 2018-03-11)"
   sodipodi:docname="origo.svg">
  <defs
     id="defs2" />
  <sodipodi:namedview
     id="base"
     pagecolor="#00ffff"
     bordercolor="#666666"
     borderopacity="1.0"
     inkscape:pageopacity="0"
     inkscape:pageshadow="2"
     inkscape:zoom="0.35"
     inkscape:cx="367.54286"
     inkscape:cy="-334.88572"
     inkscape:document-units="px"
     inkscape:current-layer="layer1"
     showgrid="false"
     units="px"
     fit-margin-top="0.5"
     fit-margin-left="0.5"
     fit-margin-right="0.5"
     fit-margin-bottom="0.5"
     inkscape:window-width="1920"
     inkscape:window-height="1001"
     inkscape:window-x="-9"
     inkscape:window-y="-9"
     inkscape:window-maximized="1" />
  <metadata
     id="metadata5">
    <rdf:RDF>
      <cc:Work
         rdf:about="">
        <dc:format>image/svg+xml</dc:format>
        <dc:type
           rdf:resource="http://purl.org/dc/dcmitype/StillImage" />
        <dc:title></dc:title>
      </cc:Work>
    </rdf:RDF>
  </metadata>
  <g
     inkscape:label="Layer 1"
     inkscape:groupmode="layer"
     id="layer1"
     transform="translate(-8.5876186,-31.819457)">
    <g
       id="g44"
       transform="matrix(0.118352,0,0,0.118352,8.7199103,31.951749)">
      <path
         id="path12"
         d="m 132.9,36.1 c -24.7,0 -44.8,20.1 -44.8,44.8 0,24.9 20.1,45 44.8,45 24.7,0 44.8,-20.1 44.8,-44.8 0,-24.9 -20.1,-45 -44.8,-45 m -0.7,125.8 C 109.4,161.9 89.9,154 74.5,138.3 59.1,122.9 51.2,103.2 51.2,79.8 51.2,57.8 59.2,38.7 75,23.3 90.8,7.8 110.2,0 132.8,0 c 22.7,0 42.3,7.9 58.1,23.4 15.7,15.6 23.6,35 23.6,57.6 0,22.8 -8,42.3 -23.8,57.7 -15.7,15.4 -35.4,23.2 -58.5,23.2"
         inkscape:connector-curvature="0" />
      <path
         id="path14"
         d="m 646.9,36.1 c -24.7,0 -44.8,20.1 -44.8,44.8 0,24.9 20.1,45 44.8,45 24.7,0 44.8,-20.1 44.8,-44.8 0,-24.9 -20.1,-45 -44.8,-45 m -0.7,125.8 c -22.8,0 -42.3,-7.9 -57.7,-23.6 -15.4,-15.4 -23.3,-35.1 -23.3,-58.5 0,-22 8,-41.1 23.8,-56.5 C 604.7,7.8 624.2,0 646.8,0 c 22.7,0 42.3,7.9 58.1,23.4 15.7,15.6 23.6,35 23.6,57.6 0,22.8 -8,42.3 -23.8,57.7 -15.8,15.4 -35.5,23.2 -58.5,23.2"
         inkscape:connector-curvature="0" />
      <path
         id="path16"
         d="M 333.1,91.3 V 7.8 c 0,-2.1 1.7,-3.8 3.8,-3.8 H 372 c 2.1,0 3.8,1.7 3.8,3.8 v 83.5 c 0,2.1 -1.7,3.8 -3.8,3.8 h -35.1 c -2.1,0.1 -3.8,-1.6 -3.8,-3.8"
         inkscape:connector-curvature="0" />
      <path
         id="path18"
         d="m 469.7,36.2 c -23.8,0.4 -43.5,20.1 -43.9,43.9 -0.2,12.1 4.3,23.6 12.8,32.2 8.5,8.6 19.8,13.4 32,13.4 h 0.9 c 23.8,-0.4 43.5,-20.1 43.9,-43.9 0.2,-12.1 -4.3,-23.6 -12.8,-32.2 -8.5,-8.6 -19.8,-13.4 -32,-13.4 z m 7.7,201.6 c -20.3,0 -37.3,-5.6 -50.6,-16.6 -13.7,-11.4 -21.7,-27.3 -23.8,-47.3 l -0.1,-1.2 c -0.1,-1.4 1,-2.6 2.4,-2.6 h 36.1 c 1.1,0 2.1,0.8 2.3,2 l 0.2,0.9 c 1.2,6.6 3.2,11.8 5.8,15.2 6.4,8.3 15.6,12.4 28,12.4 22.7,0 33.8,-13.8 33.8,-42.2 v -2.9 c 0,-1.8 -1.8,-2.9 -3.4,-2.1 -11.4,5.7 -24.2,8.6 -38.2,8.6 -22.8,0 -42.3,-7.9 -57.7,-23.6 -15.4,-15.4 -23.3,-35.1 -23.3,-58.5 0,-22 8,-41.1 23.8,-56.5 C 428.4,7.8 447.8,0 470.4,0 c 13.7,0 26.3,2.9 37.6,8.6 1.6,0.8 3.4,-0.3 3.4,-2.1 0,-1.3 1.1,-2.4 2.4,-2.4 h 36 c 1.3,0 2.4,1.1 2.4,2.4 v 144.3 c 0,7 -0.2,13.2 -0.7,18.6 -0.5,5.4 -1.1,10.2 -1.9,14.3 -2.5,11.6 -7.6,21.7 -15,30.1 -13.8,15.9 -33.1,24 -57.2,24"
         inkscape:connector-curvature="0" />
      <path
         id="path20"
         d="m 354.2,158.4 c -14.1,0 -25.6,-11.5 -25.6,-25.6 0,-14.1 11.5,-25.6 25.6,-25.6 14.1,0 25.6,11.5 25.6,25.6 0,14.1 -11.5,25.6 -25.6,25.6"
         class="st0"
         inkscape:connector-curvature="0"
         style="fill:#e85708" />
      <path
         id="path22"
         d="m 754.2,158.4 c -14.1,0 -25.6,-11.5 -25.6,-25.6 0,-14.1 11.5,-25.6 25.6,-25.6 14.1,0 25.6,11.5 25.6,25.6 0,14.1 -11.5,25.6 -25.6,25.6"
         class="st1"
         inkscape:connector-curvature="0"
         style="fill:#0a9e9c" />
      <path
         id="path24"
         d="M 25.6,158.4 C 11.5,158.4 0,146.9 0,132.8 c 0,-14.1 11.5,-25.6 25.6,-25.6 14.1,0 25.6,11.5 25.6,25.6 0,14.1 -11.5,25.6 -25.6,25.6"
         class="st2"
         inkscape:connector-curvature="0"
         style="fill:#24a6cc" />
      <path
         id="path26"
         d="m 268.5,10.4 c 0,1.8 1.9,2.9 3.4,2.1 11.3,-5.6 23.9,-8.5 37.6,-8.5 2.3,0 4.8,0.1 7.6,0.3 v 0 c 1.8,0.1 3.2,1.6 3.2,3.4 v 29.6 c 0,2.1 -1.9,3.7 -4,3.4 -2,-0.3 -4,-0.5 -6,-0.5 h -1.8 c -22,0.4 -40,19.1 -40,41.7 v 72.7 c 0,1.9 -1.5,3.4 -3.4,3.4 h -33.9 c -1.9,0 -3.4,-1.5 -3.4,-3.4 V 7.8 c 0,-1.9 1.5,-3.4 3.4,-3.4 h 33.8 1.1 c 1.3,0 2.4,1.1 2.4,2.4 z"
         inkscape:connector-curvature="0" />
    </g>
  </g>
  <style
     id="style10"
     type="text/css">
	.st0{fill:#E85708;}
	.st1{fill:#0A9E9C;}
	.st2{fill:#24A6CC;}
</style>
</svg>
